# xmcd CD database file
#
# Track frame offsets:
#	150
#	16550
#	33660
#
# Disc length: 722 seconds
#
# Revision: 0
# Processed by: cddbd v1.5PL3 Copyright (c) Steve Scherf et al.
# Submitted via: CDex 1.50beta10
#
DISCID=1602d003
DTITLE=亜矢 - AYA Bitch Project
DYEAR=2003
DGENRE=Rock
TTITLE0=Betty
TTITLE1=SHELTER  Bootleg Live version
TTITLE2=EDEN home demo
EXTD=YEAR: 2003
EXTT0=
EXTT1=
EXTT2=
PLAYORDER=
